<svg width="20" height="20" viewBox="0 0 20 20" fill="none" xmlns="http://www.w3.org/2000/svg">
<rect width="20" height="20" rx="10" fill="white"/>
<path fill-rule="evenodd" clip-rule="evenodd" d="M6 9.51C5.86739 9.51 5.74021 9.56268 5.64645 9.65645C5.55268 9.75022 5.5 9.8774 5.5 10.01C5.5 10.1426 5.55268 10.2698 5.64645 10.3636C5.74021 10.4573 5.86739 10.51 6 10.51H9.5L9.51 14.01C9.51066 14.0757 9.52424 14.1406 9.54997 14.201C9.57571 14.2614 9.61309 14.3161 9.65998 14.3621C9.70688 14.4081 9.76236 14.4443 9.82328 14.4689C9.88419 14.4934 9.94934 14.5057 10.015 14.505C10.0807 14.5043 10.1455 14.4908 10.206 14.465C10.2664 14.4393 10.3211 14.4019 10.3671 14.355C10.4131 14.3081 10.4493 14.2526 10.4739 14.1917C10.4984 14.1308 10.5107 14.0657 10.51 14V10.5L14.01 10.49C14.0757 10.4893 14.1405 10.4758 14.201 10.45C14.2614 10.4243 14.3161 10.3869 14.3621 10.34C14.4081 10.2931 14.4443 10.2376 14.4689 10.1767C14.4934 10.1158 14.5057 10.0507 14.505 9.985C14.5043 9.91934 14.4908 9.85445 14.465 9.79404C14.4393 9.73363 14.4019 9.67888 14.355 9.63292C14.3081 9.58695 14.2526 9.55067 14.1917 9.52615C14.1308 9.50163 14.0657 9.48935 14 9.49H10.5L10.49 5.99C10.4887 5.8574 10.4347 5.73075 10.34 5.63792C10.2453 5.54509 10.1176 5.49368 9.985 5.495C9.85239 5.49633 9.72574 5.55028 9.63291 5.64499C9.54008 5.73969 9.48867 5.8674 9.49 6V9.5L5.99 9.51H6Z" fill="#212326"/>
</svg>
