<svg width="104" height="21" viewBox="0 0 104 21" fill="none" xmlns="http://www.w3.org/2000/svg">
<g clip-path="url(#clip0_13_714)">
<path d="M17.52 8.48569C17.52 8.24778 17.3361 8.09639 16.9685 8.03151L11.9401 7.28536L9.70159 2.74356C9.57183 2.48403 9.40962 2.35426 9.21497 2.35426C9.02032 2.35426 8.85812 2.48403 8.72835 2.74356L6.4899 7.28536L1.46148 8.03151C1.09381 8.09639 0.909973 8.24778 0.909973 8.48569C0.909973 8.63708 0.996484 8.79929 1.1695 8.97231L4.80294 12.5084L3.92702 17.5044C3.92702 17.5909 3.92702 17.6558 3.92702 17.699C3.92702 17.8288 3.95947 17.9424 4.02435 18.0397C4.08923 18.137 4.19737 18.1857 4.34876 18.1857C4.4569 18.1857 4.58667 18.1424 4.73806 18.0559L9.21497 15.7201L13.6919 18.0559C13.8433 18.1424 13.973 18.1857 14.0812 18.1857C14.2326 18.1857 14.3407 18.137 14.4056 18.0397C14.4705 17.9424 14.5029 17.8288 14.5029 17.699C14.5029 17.6125 14.5029 17.5477 14.5029 17.5044L13.627 12.5084L17.2604 8.97231C17.4335 8.79929 17.52 8.63708 17.52 8.48569Z" fill="#FFD02A"/>
</g>
<g clip-path="url(#clip1_13_714)">
<path d="M38.13 8.48569C38.13 8.24778 37.9461 8.09639 37.5785 8.03151L32.55 7.28536L30.3116 2.74356C30.1818 2.48403 30.0196 2.35426 29.825 2.35426C29.6303 2.35426 29.4681 2.48403 29.3383 2.74356L27.0999 7.28536L22.0715 8.03151C21.7038 8.09639 21.52 8.24778 21.52 8.48569C21.52 8.63708 21.6065 8.79929 21.7795 8.97231L25.4129 12.5084L24.537 17.5044C24.537 17.5909 24.537 17.6558 24.537 17.699C24.537 17.8288 24.5695 17.9424 24.6343 18.0397C24.6992 18.137 24.8074 18.1857 24.9587 18.1857C25.0669 18.1857 25.1967 18.1424 25.348 18.0559L29.825 15.7201L34.3019 18.0559C34.4533 18.1424 34.583 18.1857 34.6912 18.1857C34.8426 18.1857 34.9507 18.137 35.0156 18.0397C35.0805 17.9424 35.1129 17.8288 35.1129 17.699C35.1129 17.6125 35.1129 17.5477 35.1129 17.5044L34.237 12.5084L37.8704 8.97231C38.0434 8.79929 38.13 8.63708 38.13 8.48569Z" fill="#FFD02A"/>
</g>
<g clip-path="url(#clip2_13_714)">
<path d="M58.73 8.48569C58.73 8.24778 58.5463 8.09639 58.1788 8.03151L53.1534 7.28536L50.9163 2.74356C50.7866 2.48403 50.6245 2.35426 50.43 2.35426C50.2355 2.35426 50.0734 2.48403 49.9437 2.74356L47.7066 7.28536L42.6812 8.03151C42.3137 8.09639 42.13 8.24778 42.13 8.48569C42.13 8.63708 42.2165 8.79929 42.3894 8.97231L46.0206 12.5084L45.1452 17.5044C45.1452 17.5909 45.1452 17.6558 45.1452 17.699C45.1452 17.8288 45.1777 17.9424 45.2425 18.0397C45.3073 18.137 45.4154 18.1857 45.5667 18.1857C45.6748 18.1857 45.8045 18.1424 45.9558 18.0559L50.43 15.7201L54.9042 18.0559C55.0555 18.1424 55.1852 18.1857 55.2933 18.1857C55.4446 18.1857 55.5527 18.137 55.6175 18.0397C55.6823 17.9424 55.7148 17.8288 55.7148 17.699C55.7148 17.6125 55.7148 17.5477 55.7148 17.5044L54.8394 12.5084L58.4706 8.97231C58.6435 8.79929 58.73 8.63708 58.73 8.48569Z" fill="#FFD02A"/>
</g>
<g clip-path="url(#clip3_13_714)">
<path d="M79.34 8.48569C79.34 8.24778 79.1561 8.09639 78.7885 8.03151L73.7601 7.28536L71.5216 2.74356C71.3918 2.48403 71.2296 2.35426 71.035 2.35426C70.8403 2.35426 70.6781 2.48403 70.5484 2.74356L68.3099 7.28536L63.2815 8.03151C62.9138 8.09639 62.73 8.24778 62.73 8.48569C62.73 8.63708 62.8165 8.79929 62.9895 8.97231L66.6229 12.5084L65.747 17.5044C65.747 17.5909 65.747 17.6558 65.747 17.699C65.747 17.8288 65.7795 17.9424 65.8444 18.0397C65.9092 18.137 66.0174 18.1857 66.1688 18.1857C66.2769 18.1857 66.4067 18.1424 66.5581 18.0559L71.035 15.7201L75.5119 18.0559C75.6633 18.1424 75.7931 18.1857 75.9012 18.1857C76.0526 18.1857 76.1607 18.137 76.2256 18.0397C76.2905 17.9424 76.3229 17.8288 76.3229 17.699C76.3229 17.6125 76.3229 17.5477 76.3229 17.5044L75.447 12.5084L79.0805 8.97231C79.2535 8.79929 79.34 8.63708 79.34 8.48569Z" fill="#FFD02A"/>
</g>
<g clip-path="url(#clip4_13_714)">
<path d="M99.95 8.48569C99.95 8.24778 99.7661 8.09639 99.3985 8.03151L94.37 7.28536L92.1316 2.74356C92.0018 2.48403 91.8396 2.35426 91.645 2.35426C91.4503 2.35426 91.2881 2.48403 91.1583 2.74356L88.9199 7.28536L83.8915 8.03151C83.5238 8.09639 83.34 8.24778 83.34 8.48569C83.34 8.63708 83.4265 8.79929 83.5995 8.97231L87.2329 12.5084L86.357 17.5044C86.357 17.5909 86.357 17.6558 86.357 17.699C86.357 17.8288 86.3895 17.9424 86.4543 18.0397C86.5192 18.137 86.6274 18.1857 86.7788 18.1857C86.8869 18.1857 87.0167 18.1424 87.1681 18.0559L91.645 15.7201L96.1219 18.0559C96.2733 18.1424 96.403 18.1857 96.5112 18.1857C96.6626 18.1857 96.7707 18.137 96.8356 18.0397C96.9005 17.9424 96.9329 17.8288 96.9329 17.699C96.9329 17.6125 96.9329 17.5477 96.9329 17.5044L96.057 12.5084L99.6904 8.97231C99.8635 8.79929 99.95 8.63708 99.95 8.48569Z" fill="#FFD02A"/>
</g>
<defs>
<clipPath id="clip0_13_714">
<rect width="16.61" height="16" fill="white" transform="matrix(1 0 0 -1 0.909973 18.27)"/>
</clipPath>
<clipPath id="clip1_13_714">
<rect width="16.61" height="16" fill="white" transform="matrix(1 0 0 -1 21.52 18.27)"/>
</clipPath>
<clipPath id="clip2_13_714">
<rect width="16.6" height="16" fill="white" transform="matrix(1 0 0 -1 42.13 18.27)"/>
</clipPath>
<clipPath id="clip3_13_714">
<rect width="16.61" height="16" fill="white" transform="matrix(1 0 0 -1 62.73 18.27)"/>
</clipPath>
<clipPath id="clip4_13_714">
<rect width="16.61" height="16" fill="white" transform="matrix(1 0 0 -1 83.34 18.27)"/>
</clipPath>
</defs>
</svg>
