<svg width="100" height="21" viewBox="0 0 100 21" fill="none" xmlns="http://www.w3.org/2000/svg">
<g clip-path="url(#clip0_10_218)">
<path d="M17.52 8.65561C17.52 8.41771 17.3361 8.26631 16.9685 8.20143L11.9401 7.45528L9.70159 2.91348C9.57183 2.65395 9.40962 2.52418 9.21497 2.52418C9.02032 2.52418 8.85812 2.65395 8.72835 2.91348L6.4899 7.45528L1.46148 8.20143C1.09381 8.26631 0.909973 8.41771 0.909973 8.65561C0.909973 8.807 0.996484 8.96921 1.1695 9.14223L4.80294 12.6783L3.92702 17.6743C3.92702 17.7608 3.92702 17.8257 3.92702 17.869C3.92702 17.9987 3.95947 18.1123 4.02435 18.2096C4.08923 18.3069 4.19737 18.3556 4.34876 18.3556C4.4569 18.3556 4.58667 18.3123 4.73806 18.2258L9.21497 15.89L13.6919 18.2258C13.8433 18.3123 13.973 18.3556 14.0812 18.3556C14.3623 18.3556 14.5029 18.1934 14.5029 17.869C14.5029 17.7825 14.5029 17.7176 14.5029 17.6743L13.627 12.6783L17.2604 9.14223C17.4335 8.96921 17.52 8.807 17.52 8.65561ZM12.2645 12.2242L12.9782 16.4091L9.21497 14.4302L5.45177 16.4091L6.16548 12.2242L3.11599 9.272L7.33337 8.62317L9.21497 4.82752L11.0966 8.62317L15.314 9.272L12.2645 12.2242Z" fill="#FFD02A"/>
</g>
<g clip-path="url(#clip1_10_218)">
<path d="M38.13 8.65561C38.13 8.41771 37.9461 8.26631 37.5785 8.20143L32.55 7.45528L30.3116 2.91348C30.1818 2.65395 30.0196 2.52418 29.825 2.52418C29.6303 2.52418 29.4681 2.65395 29.3383 2.91348L27.0999 7.45528L22.0715 8.20143C21.7038 8.26631 21.52 8.41771 21.52 8.65561C21.52 8.807 21.6065 8.96921 21.7795 9.14223L25.4129 12.6783L24.537 17.6743C24.537 17.7608 24.537 17.8257 24.537 17.869C24.537 17.9987 24.5695 18.1123 24.6343 18.2096C24.6992 18.3069 24.8074 18.3556 24.9587 18.3556C25.0669 18.3556 25.1967 18.3123 25.348 18.2258L29.825 15.89L34.3019 18.2258C34.4533 18.3123 34.583 18.3556 34.6912 18.3556C34.9723 18.3556 35.1129 18.1934 35.1129 17.869C35.1129 17.7825 35.1129 17.7176 35.1129 17.6743L34.237 12.6783L37.8704 9.14223C38.0434 8.96921 38.13 8.807 38.13 8.65561ZM32.8745 12.2242L33.5882 16.4091L29.825 14.4302L26.0618 16.4091L26.7755 12.2242L23.726 9.272L27.9434 8.62317L29.825 4.82752L31.7066 8.62317L35.9239 9.272L32.8745 12.2242Z" fill="#FFD02A"/>
</g>
<g clip-path="url(#clip2_10_218)">
<path d="M58.73 8.65561C58.73 8.41771 58.5463 8.26631 58.1788 8.20143L53.1534 7.45528L50.9163 2.91348C50.7866 2.65395 50.6245 2.52418 50.43 2.52418C50.2355 2.52418 50.0734 2.65395 49.9437 2.91348L47.7066 7.45528L42.6812 8.20143C42.3137 8.26631 42.13 8.41771 42.13 8.65561C42.13 8.807 42.2165 8.96921 42.3894 9.14223L46.0206 12.6783L45.1452 17.6743C45.1452 17.7608 45.1452 17.8257 45.1452 17.869C45.1452 17.9987 45.1777 18.1123 45.2425 18.2096C45.3073 18.3069 45.4154 18.3556 45.5667 18.3556C45.6748 18.3556 45.8045 18.3123 45.9558 18.2258L50.43 15.89L54.9042 18.2258C55.0555 18.3123 55.1852 18.3556 55.2933 18.3556C55.5743 18.3556 55.7148 18.1934 55.7148 17.869C55.7148 17.7825 55.7148 17.7176 55.7148 17.6743L54.8394 12.6783L58.4706 9.14223C58.6435 8.96921 58.73 8.807 58.73 8.65561ZM53.4777 12.2242L54.1909 16.4091L50.43 14.4302L46.6691 16.4091L47.3823 12.2242L44.3347 9.272L48.5495 8.62317L50.43 4.82752L52.3105 8.62317L56.5253 9.272L53.4777 12.2242Z" fill="#FFD02A"/>
</g>
<g clip-path="url(#clip3_10_218)">
<path d="M79.34 8.65561C79.34 8.41771 79.1561 8.26631 78.7885 8.20143L73.7601 7.45528L71.5216 2.91348C71.3918 2.65395 71.2296 2.52418 71.035 2.52418C70.8403 2.52418 70.6781 2.65395 70.5484 2.91348L68.3099 7.45528L63.2815 8.20143C62.9138 8.26631 62.73 8.41771 62.73 8.65561C62.73 8.807 62.8165 8.96921 62.9895 9.14223L66.6229 12.6783L65.747 17.6743C65.747 17.7608 65.747 17.8257 65.747 17.869C65.747 17.9987 65.7795 18.1123 65.8444 18.2096C65.9092 18.3069 66.0174 18.3556 66.1688 18.3556C66.2769 18.3556 66.4067 18.3123 66.5581 18.2258L71.035 15.89L75.5119 18.2258C75.6633 18.3123 75.7931 18.3556 75.9012 18.3556C76.1824 18.3556 76.3229 18.1934 76.3229 17.869C76.3229 17.7825 76.3229 17.7176 76.3229 17.6743L75.447 12.6783L79.0805 9.14223C79.2535 8.96921 79.34 8.807 79.34 8.65561ZM74.0845 12.2242L74.7982 16.4091L71.035 14.4302L67.2718 16.4091L67.9855 12.2242L64.936 9.272L69.1534 8.62317L71.035 4.82752L72.9166 8.62317L77.134 9.272L74.0845 12.2242Z" fill="#FFD02A"/>
</g>
<g clip-path="url(#clip4_10_218)">
<path d="M99.95 8.65561C99.95 8.41771 99.7661 8.26631 99.3985 8.20143L94.37 7.45528L92.1316 2.91348C92.0018 2.65395 91.8396 2.52418 91.645 2.52418C91.4503 2.52418 91.2881 2.65395 91.1583 2.91348L88.9199 7.45528L83.8915 8.20143C83.5238 8.26631 83.34 8.41771 83.34 8.65561C83.34 8.807 83.4265 8.96921 83.5995 9.14223L87.2329 12.6783L86.357 17.6743C86.357 17.7608 86.357 17.8257 86.357 17.869C86.357 17.9987 86.3895 18.1123 86.4543 18.2096C86.5192 18.3069 86.6274 18.3556 86.7788 18.3556C86.8869 18.3556 87.0167 18.3123 87.1681 18.2258L91.645 15.89L96.1219 18.2258C96.2733 18.3123 96.403 18.3556 96.5112 18.3556C96.7923 18.3556 96.9329 18.1934 96.9329 17.869C96.9329 17.7825 96.9329 17.7176 96.9329 17.6743L96.057 12.6783L99.6904 9.14223C99.8635 8.96921 99.95 8.807 99.95 8.65561ZM94.6945 12.2242L95.4082 16.4091L91.645 14.4302L87.8818 16.4091L88.5955 12.2242L85.546 9.272L89.7634 8.62317L91.645 4.82752L93.5266 8.62317L97.744 9.272L94.6945 12.2242Z" fill="#FFD02A"/>
</g>
<defs>
<clipPath id="clip0_10_218">
<rect width="16.61" height="16" fill="white" transform="matrix(1 0 0 -1 0.909973 18.4399)"/>
</clipPath>
<clipPath id="clip1_10_218">
<rect width="16.61" height="16" fill="white" transform="matrix(1 0 0 -1 21.52 18.4399)"/>
</clipPath>
<clipPath id="clip2_10_218">
<rect width="16.6" height="16" fill="white" transform="matrix(1 0 0 -1 42.13 18.4399)"/>
</clipPath>
<clipPath id="clip3_10_218">
<rect width="16.61" height="16" fill="white" transform="matrix(1 0 0 -1 62.73 18.4399)"/>
</clipPath>
<clipPath id="clip4_10_218">
<rect width="16.61" height="16" fill="white" transform="matrix(1 0 0 -1 83.34 18.4399)"/>
</clipPath>
</defs>
</svg>
