<svg width="103" height="21" viewBox="0 0 103 21" fill="none" xmlns="http://www.w3.org/2000/svg">
<g clip-path="url(#clip0_13_529)">
<path d="M16.61 8.65573C16.61 8.41783 16.4262 8.26644 16.0585 8.20155L11.0301 7.4554L8.79162 2.9136C8.66186 2.65407 8.49965 2.52431 8.305 2.52431C8.11035 2.52431 7.94814 2.65407 7.81838 2.9136L5.57992 7.4554L0.551504 8.20155C0.183835 8.26644 0 8.41783 0 8.65573C0 8.80713 0.0865104 8.96933 0.259531 9.14235L3.89297 12.6785L3.01705 17.6744C3.01705 17.761 3.01705 17.8258 3.01705 17.8691C3.01705 17.9989 3.04949 18.1124 3.11438 18.2097C3.17926 18.3071 3.2874 18.3557 3.43879 18.3557C3.54693 18.3557 3.67669 18.3125 3.82809 18.2259L8.305 15.8902L12.7819 18.2259C12.9333 18.3125 13.0631 18.3557 13.1712 18.3557C13.3226 18.3557 13.4307 18.3071 13.4956 18.2097C13.5605 18.1124 13.5929 17.9989 13.5929 17.8691C13.5929 17.7826 13.5929 17.7177 13.5929 17.6744L12.717 12.6785L16.3505 9.14235C16.5235 8.96933 16.61 8.80713 16.61 8.65573Z" fill="#FFD02A"/>
</g>
<g clip-path="url(#clip1_13_529)">
<path d="M37.22 8.65573C37.22 8.41783 37.0362 8.26644 36.6685 8.20155L31.6401 7.4554L29.4016 2.9136C29.2719 2.65407 29.1096 2.52431 28.915 2.52431C28.7204 2.52431 28.5581 2.65407 28.4284 2.9136L26.1899 7.4554L21.1615 8.20155C20.7938 8.26644 20.61 8.41783 20.61 8.65573C20.61 8.80713 20.6965 8.96933 20.8695 9.14235L24.503 12.6785L23.6271 17.6744C23.6271 17.761 23.6271 17.8258 23.6271 17.8691C23.6271 17.9989 23.6595 18.1124 23.7244 18.2097C23.7893 18.3071 23.8974 18.3557 24.0488 18.3557C24.1569 18.3557 24.2867 18.3125 24.4381 18.2259L28.915 15.8902L33.3919 18.2259C33.5433 18.3125 33.6731 18.3557 33.7812 18.3557C33.9326 18.3557 34.0407 18.3071 34.1056 18.2097C34.1705 18.1124 34.203 17.9989 34.203 17.8691C34.203 17.7826 34.203 17.7177 34.203 17.6744L33.327 12.6785L36.9605 9.14235C37.1335 8.96933 37.22 8.80713 37.22 8.65573Z" fill="#FFD02A"/>
</g>
<g clip-path="url(#clip2_13_529)">
<path d="M57.83 8.65573C57.83 8.41783 57.6462 8.26644 57.2785 8.20155L52.2501 7.4554L50.0116 2.9136C49.8819 2.65407 49.7197 2.52431 49.525 2.52431C49.3304 2.52431 49.1681 2.65407 49.0384 2.9136L46.7999 7.4554L41.7715 8.20155C41.4038 8.26644 41.22 8.41783 41.22 8.65573C41.22 8.80713 41.3065 8.96933 41.4795 9.14235L45.113 12.6785L44.2371 17.6744C44.2371 17.761 44.2371 17.8258 44.2371 17.8691C44.2371 17.9989 44.2695 18.1124 44.3344 18.2097C44.3993 18.3071 44.5074 18.3557 44.6588 18.3557C44.7669 18.3557 44.8967 18.3125 45.0481 18.2259L49.525 15.8902L54.0019 18.2259C54.1533 18.3125 54.2831 18.3557 54.3912 18.3557C54.5426 18.3557 54.6507 18.3071 54.7156 18.2097C54.7805 18.1124 54.813 17.9989 54.813 17.8691C54.813 17.7826 54.813 17.7177 54.813 17.6744L53.937 12.6785L57.5705 9.14235C57.7435 8.96933 57.83 8.80713 57.83 8.65573Z" fill="#FFD02A"/>
</g>
<g clip-path="url(#clip3_13_529)">
<path d="M78.44 8.65573C78.44 8.41783 78.2562 8.26644 77.8885 8.20155L72.8601 7.4554L70.6216 2.9136C70.4919 2.65407 70.3297 2.52431 70.135 2.52431C69.9404 2.52431 69.7781 2.65407 69.6484 2.9136L67.4099 7.4554L62.3815 8.20155C62.0138 8.26644 61.83 8.41783 61.83 8.65573C61.83 8.80713 61.9165 8.96933 62.0895 9.14235L65.723 12.6785L64.8471 17.6744C64.8471 17.761 64.8471 17.8258 64.8471 17.8691C64.8471 17.9989 64.8795 18.1124 64.9444 18.2097C65.0093 18.3071 65.1174 18.3557 65.2688 18.3557C65.3769 18.3557 65.5067 18.3125 65.6581 18.2259L70.135 15.8902L74.6119 18.2259C74.7633 18.3125 74.8931 18.3557 75.0012 18.3557C75.1526 18.3557 75.2607 18.3071 75.3256 18.2097C75.3905 18.1124 75.423 17.9989 75.423 17.8691C75.423 17.7826 75.423 17.7177 75.423 17.6744L74.547 12.6785L78.1805 9.14235C78.3535 8.96933 78.44 8.80713 78.44 8.65573Z" fill="#FFD02A"/>
</g>
<g clip-path="url(#clip4_13_529)">
<path d="M99.05 8.65573C99.05 8.41783 98.8662 8.26644 98.4985 8.20155L93.4701 7.4554L91.2316 2.9136C91.1019 2.65407 90.9397 2.52431 90.745 2.52431C90.5504 2.52431 90.3881 2.65407 90.2584 2.9136L88.0199 7.4554L82.9915 8.20155C82.6238 8.26644 82.44 8.41783 82.44 8.65573C82.44 8.80713 82.5265 8.96933 82.6995 9.14235L86.333 12.6785L85.4571 17.6744C85.4571 17.761 85.4571 17.8258 85.4571 17.8691C85.4571 17.9989 85.4895 18.1124 85.5544 18.2097C85.6193 18.3071 85.7274 18.3557 85.8788 18.3557C85.9869 18.3557 86.1167 18.3125 86.2681 18.2259L90.745 15.8902L95.2219 18.2259C95.3733 18.3125 95.5031 18.3557 95.6112 18.3557C95.7626 18.3557 95.8707 18.3071 95.9356 18.2097C96.0005 18.1124 96.033 17.9989 96.033 17.8691C96.033 17.7826 96.033 17.7177 96.033 17.6744L95.157 12.6785L98.7905 9.14235C98.9635 8.96933 99.05 8.80713 99.05 8.65573Z" fill="#FFD02A"/>
</g>
<defs>
<clipPath id="clip0_13_529">
<rect width="16.61" height="16" fill="white" transform="matrix(1 0 0 -1 0 18.44)"/>
</clipPath>
<clipPath id="clip1_13_529">
<rect width="16.61" height="16" fill="white" transform="matrix(1 0 0 -1 20.61 18.44)"/>
</clipPath>
<clipPath id="clip2_13_529">
<rect width="16.61" height="16" fill="white" transform="matrix(1 0 0 -1 41.22 18.44)"/>
</clipPath>
<clipPath id="clip3_13_529">
<rect width="16.61" height="16" fill="white" transform="matrix(1 0 0 -1 61.83 18.44)"/>
</clipPath>
<clipPath id="clip4_13_529">
<rect width="16.61" height="16" fill="white" transform="matrix(1 0 0 -1 82.44 18.44)"/>
</clipPath>
</defs>
</svg>
