<svg width="104" height="21" viewBox="0 0 104 21" fill="none" xmlns="http://www.w3.org/2000/svg">
<g clip-path="url(#clip0_13_605)">
<path d="M17.52 8.65573C17.52 8.41783 17.3361 8.26644 16.9685 8.20155L11.9401 7.4554L9.70159 2.9136C9.57183 2.65407 9.40962 2.52431 9.21497 2.52431C9.02032 2.52431 8.85812 2.65407 8.72835 2.9136L6.4899 7.4554L1.46148 8.20155C1.09381 8.26644 0.909973 8.41783 0.909973 8.65573C0.909973 8.80713 0.996484 8.96933 1.1695 9.14235L4.80294 12.6785L3.92702 17.6744C3.92702 17.761 3.92702 17.8258 3.92702 17.8691C3.92702 17.9989 3.95947 18.1124 4.02435 18.2097C4.08923 18.3071 4.19737 18.3557 4.34876 18.3557C4.4569 18.3557 4.58667 18.3125 4.73806 18.2259L9.21497 15.8902L13.6919 18.2259C13.8433 18.3125 13.973 18.3557 14.0812 18.3557C14.2326 18.3557 14.3407 18.3071 14.4056 18.2097C14.4705 18.1124 14.5029 17.9989 14.5029 17.8691C14.5029 17.7826 14.5029 17.7177 14.5029 17.6744L13.627 12.6785L17.2604 9.14235C17.4335 8.96933 17.52 8.80713 17.52 8.65573Z" fill="#FFD02A"/>
</g>
<g clip-path="url(#clip1_13_605)">
<path d="M38.13 8.65573C38.13 8.41783 37.9461 8.26644 37.5785 8.20155L32.55 7.4554L30.3116 2.9136C30.1818 2.65407 30.0196 2.52431 29.825 2.52431C29.6303 2.52431 29.4681 2.65407 29.3383 2.9136L27.0999 7.4554L22.0715 8.20155C21.7038 8.26644 21.52 8.41783 21.52 8.65573C21.52 8.80713 21.6065 8.96933 21.7795 9.14235L25.4129 12.6785L24.537 17.6744C24.537 17.761 24.537 17.8258 24.537 17.8691C24.537 17.9989 24.5695 18.1124 24.6343 18.2097C24.6992 18.3071 24.8074 18.3557 24.9587 18.3557C25.0669 18.3557 25.1967 18.3125 25.348 18.2259L29.825 15.8902L34.3019 18.2259C34.4533 18.3125 34.583 18.3557 34.6912 18.3557C34.8426 18.3557 34.9507 18.3071 35.0156 18.2097C35.0805 18.1124 35.1129 17.9989 35.1129 17.8691C35.1129 17.7826 35.1129 17.7177 35.1129 17.6744L34.237 12.6785L37.8704 9.14235C38.0434 8.96933 38.13 8.80713 38.13 8.65573Z" fill="#FFD02A"/>
</g>
<g clip-path="url(#clip2_13_605)">
<path d="M58.73 8.65573C58.73 8.41783 58.5463 8.26644 58.1788 8.20155L53.1534 7.4554L50.9163 2.9136C50.7866 2.65407 50.6245 2.52431 50.43 2.52431C50.2355 2.52431 50.0734 2.65407 49.9437 2.9136L47.7066 7.4554L42.6812 8.20155C42.3137 8.26644 42.13 8.41783 42.13 8.65573C42.13 8.80713 42.2165 8.96933 42.3894 9.14235L46.0206 12.6785L45.1452 17.6744C45.1452 17.761 45.1452 17.8258 45.1452 17.8691C45.1452 17.9989 45.1777 18.1124 45.2425 18.2097C45.3073 18.3071 45.4154 18.3557 45.5667 18.3557C45.6748 18.3557 45.8045 18.3125 45.9558 18.2259L50.43 15.8902L54.9042 18.2259C55.0555 18.3125 55.1852 18.3557 55.2933 18.3557C55.4446 18.3557 55.5527 18.3071 55.6175 18.2097C55.6823 18.1124 55.7148 17.9989 55.7148 17.8691C55.7148 17.7826 55.7148 17.7177 55.7148 17.6744L54.8394 12.6785L58.4706 9.14235C58.6435 8.96933 58.73 8.80713 58.73 8.65573Z" fill="#FFD02A"/>
</g>
<g clip-path="url(#clip3_13_605)">
<path d="M79.34 8.65573C79.34 8.41783 79.1561 8.26644 78.7885 8.20155L73.7601 7.4554L71.5216 2.9136C71.3918 2.65407 71.2296 2.52431 71.035 2.52431C70.8403 2.52431 70.6781 2.65407 70.5484 2.9136L68.3099 7.4554L63.2815 8.20155C62.9138 8.26644 62.73 8.41783 62.73 8.65573C62.73 8.80713 62.8165 8.96933 62.9895 9.14235L66.6229 12.6785L65.747 17.6744C65.747 17.761 65.747 17.8258 65.747 17.8691C65.747 17.9989 65.7795 18.1124 65.8444 18.2097C65.9092 18.3071 66.0174 18.3557 66.1688 18.3557C66.2769 18.3557 66.4067 18.3125 66.5581 18.2259L71.035 15.8902L75.5119 18.2259C75.6633 18.3125 75.7931 18.3557 75.9012 18.3557C76.0526 18.3557 76.1607 18.3071 76.2256 18.2097C76.2905 18.1124 76.3229 17.9989 76.3229 17.8691C76.3229 17.7826 76.3229 17.7177 76.3229 17.6744L75.447 12.6785L79.0805 9.14235C79.2535 8.96933 79.34 8.80713 79.34 8.65573Z" fill="#FFD02A"/>
</g>
<g clip-path="url(#clip4_13_605)">
<path d="M99.6904 9.14235C99.9067 8.92608 99.9878 8.72602 99.9337 8.54219C99.8797 8.35835 99.7012 8.24481 99.3985 8.20155L94.37 7.4554L92.1316 2.9136C92.0018 2.65407 91.8396 2.52431 91.645 2.52431C91.4503 2.52431 91.2881 2.65407 91.1583 2.9136L88.9199 7.4554L83.8915 8.20155C83.5887 8.24481 83.4103 8.35835 83.3562 8.54219C83.3021 8.72602 83.3832 8.92608 83.5995 9.14235L87.2329 12.6785L86.357 17.6744C86.3354 17.8907 86.357 18.0583 86.4219 18.1773C86.4868 18.2962 86.6057 18.3557 86.7788 18.3557C86.8869 18.3557 87.0167 18.3125 87.1681 18.2259L91.645 15.8902L96.1219 18.2259C96.2733 18.3125 96.403 18.3557 96.5112 18.3557C96.6842 18.3557 96.8032 18.2962 96.868 18.1773C96.9329 18.0583 96.9545 17.8907 96.9329 17.6744L96.057 12.6785L99.6904 9.14235ZM95.1811 11.7377L94.6945 12.2243L94.8242 12.8731L95.4082 16.4092L92.2289 14.7547L91.645 14.4303V4.82765L93.2346 8.03935L93.5266 8.62329L94.1754 8.75306L97.744 9.27212L95.1811 11.7377Z" fill="#FFD02A"/>
</g>
<defs>
<clipPath id="clip0_13_605">
<rect width="16.61" height="16" fill="white" transform="matrix(1 0 0 -1 0.909973 18.44)"/>
</clipPath>
<clipPath id="clip1_13_605">
<rect width="16.61" height="16" fill="white" transform="matrix(1 0 0 -1 21.52 18.44)"/>
</clipPath>
<clipPath id="clip2_13_605">
<rect width="16.6" height="16" fill="white" transform="matrix(1 0 0 -1 42.13 18.44)"/>
</clipPath>
<clipPath id="clip3_13_605">
<rect width="16.61" height="16" fill="white" transform="matrix(1 0 0 -1 62.73 18.44)"/>
</clipPath>
<clipPath id="clip4_13_605">
<rect width="16.61" height="16" fill="white" transform="matrix(1 0 0 -1 83.34 18.44)"/>
</clipPath>
</defs>
</svg>
