<svg width="24" height="44" viewBox="0 0 24 44" fill="none" xmlns="http://www.w3.org/2000/svg">
<g clip-path="url(#clip0_18_2546)">
<path fill-rule="evenodd" clip-rule="evenodd" d="M10.0079 15.1131C10.0595 14.9878 10.1412 14.8773 10.2459 14.7913C10.3505 14.7053 10.4748 14.6465 10.6077 14.6202C10.7405 14.5938 10.8778 14.6008 11.0074 14.6403C11.1369 14.6799 11.2547 14.7509 11.3501 14.8469L17.9215 21.4184C17.998 21.4947 18.0587 21.5853 18.1001 21.6851C18.1416 21.7849 18.1629 21.8919 18.1629 21.9999C18.1629 22.108 18.1416 22.215 18.1001 22.3148C18.0587 22.4146 17.998 22.5052 17.9215 22.5815L11.3501 29.1529C11.1959 29.3072 10.9867 29.3938 10.7685 29.3938C10.5504 29.3938 10.3412 29.3072 10.187 29.1529C10.0327 28.9987 9.94608 28.7895 9.94608 28.5714C9.94608 28.3532 10.0327 28.144 10.187 27.9898L15.357 22.8214H-2.37431C-2.59217 22.8214 -2.8011 22.7348 -2.95515 22.5808C-3.1092 22.4267 -3.19574 22.2178 -3.19574 21.9999C-3.19574 21.7821 -3.1092 21.5732 -2.95515 21.4191C-2.8011 21.2651 -2.59217 21.1785 -2.37431 21.1785H15.357L10.187 16.0101C10.0716 15.8952 9.99292 15.7485 9.96103 15.5888C9.92915 15.4291 9.94546 15.2635 10.0079 15.1131Z" fill="#114C36"/>
</g>
<defs>
<clipPath id="clip0_18_2546">
<rect width="23" height="44" fill="white" transform="translate(0.0899658)"/>
</clipPath>
</defs>
</svg>
