<svg width="100" height="21" viewBox="0 0 100 21" fill="none" xmlns="http://www.w3.org/2000/svg">
<g clip-path="url(#clip0_10_146)">
<path d="M16.61 8.65561C16.61 8.41771 16.4262 8.26631 16.0585 8.20143L11.0301 7.45528L8.79162 2.91348C8.66186 2.65395 8.49965 2.52418 8.305 2.52418C8.11035 2.52418 7.94814 2.65395 7.81838 2.91348L5.57992 7.45528L0.551504 8.20143C0.183835 8.26631 0 8.41771 0 8.65561C0 8.807 0.0865104 8.96921 0.259531 9.14223L3.89297 12.6783L3.01705 17.6743C3.01705 17.7608 3.01705 17.8257 3.01705 17.869C3.01705 17.9987 3.04949 18.1123 3.11438 18.2096C3.17926 18.3069 3.2874 18.3556 3.43879 18.3556C3.54693 18.3556 3.67669 18.3123 3.82809 18.2258L8.305 15.89L12.7819 18.2258C12.9333 18.3123 13.0631 18.3556 13.1712 18.3556C13.4524 18.3556 13.5929 18.1934 13.5929 17.869C13.5929 17.7825 13.5929 17.7176 13.5929 17.6743L12.717 12.6783L16.3505 9.14223C16.5235 8.96921 16.61 8.807 16.61 8.65561ZM11.3545 12.2242L12.0682 16.4091L8.305 14.4302L4.5418 16.4091L5.25551 12.2242L2.20602 9.272L6.4234 8.62317L8.305 4.82752L10.1866 8.62317L14.404 9.272L11.3545 12.2242Z" fill="#FFD02A"/>
</g>
<g clip-path="url(#clip1_10_146)">
<path d="M37.22 8.65561C37.22 8.41771 37.0362 8.26631 36.6685 8.20143L31.6401 7.45528L29.4016 2.91348C29.2719 2.65395 29.1096 2.52418 28.915 2.52418C28.7204 2.52418 28.5581 2.65395 28.4284 2.91348L26.1899 7.45528L21.1615 8.20143C20.7938 8.26631 20.61 8.41771 20.61 8.65561C20.61 8.807 20.6965 8.96921 20.8695 9.14223L24.503 12.6783L23.6271 17.6743C23.6271 17.7608 23.6271 17.8257 23.6271 17.869C23.6271 17.9987 23.6595 18.1123 23.7244 18.2096C23.7893 18.3069 23.8974 18.3556 24.0488 18.3556C24.1569 18.3556 24.2867 18.3123 24.4381 18.2258L28.915 15.89L33.3919 18.2258C33.5433 18.3123 33.6731 18.3556 33.7812 18.3556C34.0624 18.3556 34.203 18.1934 34.203 17.869C34.203 17.7825 34.203 17.7176 34.203 17.6743L33.327 12.6783L36.9605 9.14223C37.1335 8.96921 37.22 8.807 37.22 8.65561ZM31.9645 12.2242L32.6782 16.4091L28.915 14.4302L25.1518 16.4091L25.8655 12.2242L22.816 9.272L27.0334 8.62317L28.915 4.82752L30.7966 8.62317L35.014 9.272L31.9645 12.2242Z" fill="#FFD02A"/>
</g>
<g clip-path="url(#clip2_10_146)">
<path d="M57.83 8.65561C57.83 8.41771 57.6462 8.26631 57.2785 8.20143L52.2501 7.45528L50.0116 2.91348C49.8819 2.65395 49.7197 2.52418 49.525 2.52418C49.3304 2.52418 49.1681 2.65395 49.0384 2.91348L46.7999 7.45528L41.7715 8.20143C41.4038 8.26631 41.22 8.41771 41.22 8.65561C41.22 8.807 41.3065 8.96921 41.4795 9.14223L45.113 12.6783L44.2371 17.6743C44.2371 17.7608 44.2371 17.8257 44.2371 17.869C44.2371 17.9987 44.2695 18.1123 44.3344 18.2096C44.3993 18.3069 44.5074 18.3556 44.6588 18.3556C44.7669 18.3556 44.8967 18.3123 45.0481 18.2258L49.525 15.89L54.0019 18.2258C54.1533 18.3123 54.2831 18.3556 54.3912 18.3556C54.6724 18.3556 54.813 18.1934 54.813 17.869C54.813 17.7825 54.813 17.7176 54.813 17.6743L53.937 12.6783L57.5705 9.14223C57.7435 8.96921 57.83 8.807 57.83 8.65561ZM52.5745 12.2242L53.2882 16.4091L49.525 14.4302L45.7618 16.4091L46.4755 12.2242L43.426 9.272L47.6434 8.62317L49.525 4.82752L51.4066 8.62317L55.624 9.272L52.5745 12.2242Z" fill="#FFD02A"/>
</g>
<g clip-path="url(#clip3_10_146)">
<path d="M78.44 8.65561C78.44 8.41771 78.2562 8.26631 77.8885 8.20143L72.8601 7.45528L70.6216 2.91348C70.4919 2.65395 70.3297 2.52418 70.135 2.52418C69.9404 2.52418 69.7781 2.65395 69.6484 2.91348L67.4099 7.45528L62.3815 8.20143C62.0138 8.26631 61.83 8.41771 61.83 8.65561C61.83 8.807 61.9165 8.96921 62.0895 9.14223L65.723 12.6783L64.8471 17.6743C64.8471 17.7608 64.8471 17.8257 64.8471 17.869C64.8471 17.9987 64.8795 18.1123 64.9444 18.2096C65.0093 18.3069 65.1174 18.3556 65.2688 18.3556C65.3769 18.3556 65.5067 18.3123 65.6581 18.2258L70.135 15.89L74.6119 18.2258C74.7633 18.3123 74.8931 18.3556 75.0012 18.3556C75.2824 18.3556 75.423 18.1934 75.423 17.869C75.423 17.7825 75.423 17.7176 75.423 17.6743L74.547 12.6783L78.1805 9.14223C78.3535 8.96921 78.44 8.807 78.44 8.65561ZM73.1845 12.2242L73.8982 16.4091L70.135 14.4302L66.3718 16.4091L67.0855 12.2242L64.036 9.272L68.2534 8.62317L70.135 4.82752L72.0166 8.62317L76.234 9.272L73.1845 12.2242Z" fill="#FFD02A"/>
</g>
<g clip-path="url(#clip4_10_146)">
<path d="M99.05 8.65561C99.05 8.41771 98.8662 8.26631 98.4985 8.20143L93.4701 7.45528L91.2316 2.91348C91.1019 2.65395 90.9397 2.52418 90.745 2.52418C90.5504 2.52418 90.3881 2.65395 90.2584 2.91348L88.0199 7.45528L82.9915 8.20143C82.6238 8.26631 82.44 8.41771 82.44 8.65561C82.44 8.807 82.5265 8.96921 82.6995 9.14223L86.333 12.6783L85.4571 17.6743C85.4571 17.7608 85.4571 17.8257 85.4571 17.869C85.4571 17.9987 85.4895 18.1123 85.5544 18.2096C85.6193 18.3069 85.7274 18.3556 85.8788 18.3556C85.9869 18.3556 86.1167 18.3123 86.2681 18.2258L90.745 15.89L95.2219 18.2258C95.3733 18.3123 95.5031 18.3556 95.6112 18.3556C95.8924 18.3556 96.033 18.1934 96.033 17.869C96.033 17.7825 96.033 17.7176 96.033 17.6743L95.157 12.6783L98.7905 9.14223C98.9635 8.96921 99.05 8.807 99.05 8.65561ZM93.7945 12.2242L94.5082 16.4091L90.745 14.4302L86.9818 16.4091L87.6955 12.2242L84.646 9.272L88.8634 8.62317L90.745 4.82752L92.6266 8.62317L96.844 9.272L93.7945 12.2242Z" fill="#FFD02A"/>
</g>
<defs>
<clipPath id="clip0_10_146">
<rect width="16.61" height="16" fill="white" transform="matrix(1 0 0 -1 0 18.4399)"/>
</clipPath>
<clipPath id="clip1_10_146">
<rect width="16.61" height="16" fill="white" transform="matrix(1 0 0 -1 20.61 18.4399)"/>
</clipPath>
<clipPath id="clip2_10_146">
<rect width="16.61" height="16" fill="white" transform="matrix(1 0 0 -1 41.22 18.4399)"/>
</clipPath>
<clipPath id="clip3_10_146">
<rect width="16.61" height="16" fill="white" transform="matrix(1 0 0 -1 61.83 18.4399)"/>
</clipPath>
<clipPath id="clip4_10_146">
<rect width="16.61" height="16" fill="white" transform="matrix(1 0 0 -1 82.44 18.4399)"/>
</clipPath>
</defs>
</svg>
