<svg width="20" height="20" viewBox="0 0 20 20" fill="none" xmlns="http://www.w3.org/2000/svg">
<path d="M3.78246 6.189L17.6687 6.18891C17.784 6.18896 17.8775 6.28245 17.8775 6.39775V12.0957C17.8775 12.6042 17.5119 13.0411 17.0109 13.1278C12.4504 13.9168 10.5227 13.8982 6.05528 14.6588C5.45491 14.761 4.88731 14.3458 4.81832 13.7408C4.49941 10.9435 3.68206 3.77372 3.56724 2.7594C3.42409 1.49491 1.47935 1.59505 0.824829 1.59452" stroke="#0F4C36" stroke-width="1.36842"/>
<path d="M14.5414 17.7426C14.5414 18.5269 15.1772 19.1627 15.9615 19.1627C16.7458 19.1627 17.3816 18.5269 17.3816 17.7426C17.3816 16.9583 16.7458 16.3224 15.9615 16.3224C15.1772 16.3224 14.5414 16.9583 14.5414 17.7426Z" fill="#0F4C36"/>
<path d="M4.45087 17.7426C4.45087 18.5269 5.08668 19.1627 5.87097 19.1627C6.65528 19.1627 7.29108 18.5269 7.29108 17.7426C7.29108 16.9583 6.65528 16.3224 5.87097 16.3224C5.08668 16.3224 4.45087 16.9583 4.45087 17.7426Z" fill="#0F4C36"/>
</svg>
