<svg width="34" height="34" viewBox="0 0 34 34" fill="none" xmlns="http://www.w3.org/2000/svg">
<path d="M16.77 9.57996C19.11 9.57996 19.39 9.58996 20.31 9.62996C21.17 9.66996 21.63 9.80996 21.94 9.92996C22.35 10.1 22.64 10.28 22.95 10.59C23.25 10.89 23.45 11.19 23.6 11.59C23.72 11.91 23.87 12.37 23.9 13.23C23.95 14.15 23.96 14.43 23.96 16.77C23.96 19.11 23.95 19.39 23.91 20.31C23.9055 20.8666 23.804 21.4182 23.61 21.94C23.44 22.35 23.26 22.64 22.95 22.95C22.65 23.25 22.35 23.45 21.94 23.61C21.63 23.73 21.17 23.87 20.31 23.91C19.39 23.95 19.11 23.96 16.77 23.96C14.43 23.96 14.15 23.96 13.22 23.91C12.6667 23.9043 12.1186 23.8028 11.6 23.61C11.18 23.45 10.9 23.26 10.59 22.95C10.28 22.65 10.09 22.35 9.93 21.95C9.73647 21.4246 9.63499 20.8698 9.63 20.31C9.59 19.39 9.58 19.11 9.58 16.77C9.58 14.43 9.58 14.15 9.63 13.23C9.67 12.37 9.81 11.91 9.93 11.6C10.09 11.19 10.28 10.9 10.59 10.59C10.89 10.29 11.19 10.09 11.59 9.93996C11.91 9.81996 12.37 9.66996 13.22 9.63996C14.15 9.58996 14.42 9.57996 16.77 9.57996ZM16.77 7.99996C14.39 7.99996 14.09 8.00996 13.15 8.04996C12.22 8.08996 11.58 8.24996 11.02 8.44996C10.45 8.67996 9.96 8.98996 9.47 9.46996C9 9.95996 8.7 10.45 8.46 11.02C8.24 11.58 8.09 12.22 8.06 13.15C8 14.1 8 14.4 8 16.77C8 19.14 8.01 19.45 8.05 20.38C8.09 21.32 8.25 21.95 8.45 22.51C8.68 23.09 8.99 23.58 9.47 24.07C9.96 24.55 10.45 24.85 11.02 25.08C11.58 25.3 12.22 25.45 13.15 25.48C14.09 25.53 14.39 25.54 16.77 25.54C19.16 25.54 19.45 25.53 20.39 25.49C21.32 25.45 21.96 25.29 22.52 25.08C23.1043 24.8606 23.6334 24.5158 24.07 24.07C24.56 23.58 24.86 23.09 25.08 22.51C25.3 21.96 25.45 21.32 25.49 20.38C25.53 19.45 25.54 19.15 25.54 16.77C25.54 14.38 25.54 14.09 25.49 13.15C25.4774 12.4225 25.3421 11.7024 25.09 11.02C24.8677 10.4348 24.5195 9.90561 24.07 9.46996C23.6317 9.02605 23.1031 8.68159 22.52 8.45996C21.8383 8.20366 21.1181 8.06502 20.39 8.04996C19.184 8.00163 17.9769 7.98496 16.77 7.99996Z" fill="#114C36"/>
<path d="M16.8 11.9999C15.6065 11.9999 14.4619 12.474 13.618 13.3179C12.7741 14.1618 12.3 15.3064 12.3 16.4999C12.3 17.6934 12.7741 18.838 13.618 19.6819C14.4619 20.5258 15.6065 20.9999 16.8 20.9999C17.9935 20.9999 19.1381 20.5258 19.982 19.6819C20.8259 18.838 21.3 17.6934 21.3 16.4999C21.3 15.3064 20.8259 14.1618 19.982 13.3179C19.1381 12.474 17.9935 11.9999 16.8 11.9999ZM16.8 19.4299C16.4159 19.4299 16.0355 19.3542 15.6806 19.2073C15.3258 19.0603 15.0033 18.8448 14.7317 18.5732C14.4601 18.3016 14.2446 17.9791 14.0976 17.6243C13.9506 17.2694 13.875 16.889 13.875 16.5049C13.875 16.1208 13.9506 15.7404 14.0976 15.3856C14.2446 15.0307 14.4601 14.7082 14.7317 14.4366C15.0033 14.165 15.3258 13.9495 15.6806 13.8026C16.0355 13.6556 16.4159 13.5799 16.8 13.5799C17.5757 13.5799 18.3197 13.8881 18.8683 14.4366C19.4168 14.9852 19.725 15.7291 19.725 16.5049C19.725 17.2807 19.4168 18.0246 18.8683 18.5732C18.3197 19.1217 17.5757 19.4299 16.8 19.4299ZM21.43 12.9999C21.7085 12.9999 21.9755 12.8893 22.1725 12.6924C22.3694 12.4955 22.48 12.2284 22.48 11.9499C22.48 11.6714 22.3694 11.4044 22.1725 11.2074C21.9755 11.0105 21.7085 10.8999 21.43 10.8999C21.1515 10.8999 20.8844 11.0105 20.6875 11.2074C20.4906 11.4044 20.38 11.6714 20.38 11.9499C20.38 12.2284 20.4906 12.4955 20.6875 12.6924C20.8844 12.8893 21.1515 12.9999 21.43 12.9999Z" fill="#114C36"/>
</svg>
