<svg width="34" height="34" viewBox="0 0 34 34" fill="none" xmlns="http://www.w3.org/2000/svg">
<path d="M25.64 12.68C26 14.066 26 17 26 17C26 17 26 19.934 25.64 21.32C25.5398 21.7103 25.3366 22.0666 25.0516 22.3516C24.7667 22.6366 24.4104 22.8398 24.02 22.94C22.634 23.3 17 23.3 17 23.3C17 23.3 11.366 23.3 9.98 22.94C9.58964 22.8398 9.23335 22.6366 8.94837 22.3516C8.66339 22.0666 8.46019 21.7103 8.36 21.32C8 19.934 8 17 8 17C8 17 8 14.066 8.36 12.68C8.576 11.888 9.188 11.276 9.98 11.06C11.366 10.7 17 10.7 17 10.7C17 10.7 22.634 10.7 24.02 11.06C24.812 11.276 25.424 11.888 25.64 12.68ZM15.2 19.7L19.88 17L15.2 14.3V19.7Z" fill="#114C36"/>
</svg>
