<svg width="34" height="34" viewBox="0 0 34 34" fill="none" xmlns="http://www.w3.org/2000/svg">
<path d="M24.42 8.61011C24.69 8.61011 24.92 8.71011 25.11 8.89011C25.3 9.09011 25.39 9.31011 25.39 9.59011V25.0301C25.39 25.3001 25.29 25.5301 25.11 25.7201C25.019 25.8126 24.9098 25.8852 24.7893 25.9334C24.6688 25.9815 24.5397 26.0043 24.41 26.0001H20.02V19.3001H22.27L22.58 16.6501H20.02V14.9501C20.02 14.5501 20.12 14.2301 20.3 14.0201C20.48 13.8201 20.8 13.7001 21.3 13.7001H22.67V11.3501C22.07 11.2901 21.4 11.2501 20.66 11.2501C19.65 11.2501 18.83 11.5501 18.21 12.1501C17.59 12.7501 17.28 13.5901 17.28 14.6801V16.6501H15.04V19.3001H17.28V26.0001H8.98C8.7 26.0001 8.48 25.9001 8.28 25.7201C8.18754 25.6291 8.11493 25.5199 8.06674 25.3994C8.01855 25.2789 7.99583 25.1498 8 25.0201V9.59011C8 9.32011 8.1 9.09011 8.28 8.90011C8.37103 8.80765 8.48022 8.73504 8.6007 8.68685C8.72117 8.63867 8.85031 8.61594 8.98 8.62011H24.42V8.61011Z" fill="#114C36"/>
</svg>
