<svg width="40" height="44" viewBox="0 0 40 44" fill="none" xmlns="http://www.w3.org/2000/svg">
<g clip-path="url(#clip0_21_24)">
<g clip-path="url(#clip1_21_24)">
<g clip-path="url(#clip2_21_24)">
<path d="M23.7375 17.375H21.9125C22.225 17.675 22.4625 18.075 22.575 18.675H24.6875L23.7375 20.125H22.5625C22.0125 23.4875 17.8 23.5 17.7125 23.5L22.7875 29.8125H20.0875C17.1625 25.775 15.125 23.6375 15.125 23.6375V22.15C15.125 22.15 17.625 22.1875 18 22.1125C18.375 22.05 19.875 21.55 20.0125 20.1125H14.475L15.4125 18.6625H19.95C19.6625 17.925 19 17.5625 18.45 17.375H14.475L15.4125 15.925H24.675L23.7375 17.375Z" fill="#0C4D36"/>
<path d="M20 9.5C13.1 9.5 7.5 15.0875 7.5 22C7.5 28.9 13.1 34.5 20 34.5C26.9 34.5 32.5 28.9 32.5 22C32.5 15.0875 26.9 9.5 20 9.5ZM20 32.9375C13.95 32.9375 9.0625 28.05 9.0625 22C9.0625 15.95 13.95 11.0625 20 11.0625C26.05 11.0625 30.9375 15.95 30.9375 22C30.9375 28.05 26.05 32.9375 20 32.9375Z" fill="#0C4D36"/>
<path d="M23.7375 17.375H21.9125C22.225 17.675 22.4625 18.075 22.575 18.675H24.6875L23.7375 20.125H22.5625C22.0125 23.4875 17.8 23.5 17.7125 23.5L22.7875 29.8125H20.0875C17.1625 25.775 15.125 23.6375 15.125 23.6375V22.15C15.125 22.15 17.625 22.1875 18 22.1125C18.375 22.05 19.875 21.55 20.0125 20.1125H14.475L15.4125 18.6625H19.95C19.6625 17.925 19 17.5625 18.45 17.375H14.475L15.4125 15.925H24.675L23.7375 17.375Z" fill="#0C4D36"/>
</g>
</g>
</g>
<defs>
<clipPath id="clip0_21_24">
<rect width="25" height="25" fill="white" transform="translate(7.5 9.5)"/>
</clipPath>
<clipPath id="clip1_21_24">
<rect width="25" height="25" fill="white" transform="translate(7.5 9.5)"/>
</clipPath>
<clipPath id="clip2_21_24">
<rect width="25" height="25" fill="white" transform="translate(7.5 9.5)"/>
</clipPath>
</defs>
</svg>
